<?xml version="1.0" encoding="utf-8"?>
<!-- Generator: Adobe Illustrator 21.0.0, SVG Export Plug-In . SVG Version: 6.00 Build 0)  -->
<svg version="1.1" id="Layer_1" xmlns="http://www.w3.org/2000/svg" xmlns:xlink="http://www.w3.org/1999/xlink" x="0px" y="0px"
	 viewBox="0 0 200 200" style="enable-background:new 0 0 200 200;" xml:space="preserve">
<style type="text/css">
	.st0{fill:none;enable-background:new    ;}
	.st1{fill:#F4E6C8;stroke:#333333;stroke-width:3.5;stroke-miterlimit:10;}
	.st2{fill:none;stroke:#333333;stroke-width:3.5;stroke-miterlimit:10;}
	.st3{fill:#6A00FF;stroke:#333333;stroke-width:3.5;stroke-miterlimit:10;}
	.st4{fill:#FFFFFF;stroke:#333333;stroke-width:3.5;stroke-miterlimit:10;}
	.st5{fill:#27005E;stroke:#333333;stroke-width:3.5;stroke-miterlimit:10;}
	.st6{fill:#27005E;stroke:#333333;stroke-width:3.5;stroke-miterlimit:10;enable-background:new    ;}
	.st7{fill:#FFFFFF;}
	.st8{font-family:'Arial-Black';}
	.st9{font-size:14px;}
</style>
<path class="st0" d="M0,0"/>
<g>
	<g>
		<path class="st1" d="M167.8,53.6c0-4-2.6-7.4-6-8.8c-1.4-4.4-5-8-9.6-9c-1-6.2-6.4-10.8-12.8-10.8c-5.8,0-10.8,3.8-12.6,9.2
			c-1.6-0.6-3.2-1-5-1c-1.2,0-2.4,0.2-3.6,0.6c-2.2-4-6.6-6.8-11.6-6.8c-1.6,0-3,0.2-4.4,0.8c-2-4.4-6.6-7.6-11.8-7.6
			c-7,0-12.6,5.4-13,12.2c-1.8-0.8-3.8-1.4-5.8-1.4c-1.2,0-2.2,0.2-3.2,0.4c-2.4-2.8-6-4.6-9.8-4.6c-7.2,0-13.2,5.8-13.2,13.2
			c0,0.6,0,1.4,0.2,2c-2.8,0-5.4,1-7.6,2.6c-3.2,2.4-5.4,6.2-5.4,10.6s2,8.2,5.4,10.6c1.4,1,3.2,1.8,5,2.2h118.2
			c0.8-1.6,1.4-3.6,1.6-5.6C165.4,60.8,167.8,57.4,167.8,53.6z"/>
		<path class="st2" d="M85.2,58.8c-3.8-3.8-3.6-11,0.4-14.6s11.2-3,14.6,1.2c2.4,3,2.2,8.2-0.6,11"/>
		<path class="st2" d="M102,50c1.8-3,5.6-4.4,9-3.4c3.2,1,5.8,4.4,5.6,7.8"/>
		<path class="st1" d="M152,35.8c-1.8,0-14.6-1-14.4,12"/>
	</g>
	<path class="st3" d="M73.2,180h-14c-3,0-5.4-2.2-5.8-5.2l-11-107.2h23.8L73.2,180z"/>
	<path class="st4" d="M92.4,180H73.2L66.4,67.6H90L92.4,180z"/>
	<path class="st3" d="M111.6,180H92.4L90,67.6h23.8L111.6,180z"/>
	<path class="st4" d="M130.6,180h-19l2.2-112.4h23.8L130.6,180z"/>
	<path class="st3" d="M144.6,180h-14l6.8-112.4h23.8l-11,107.2C150,177.8,147.6,180,144.6,180L144.6,180z"/>
	<path class="st5" d="M113.8,133.4h-24c-5.6,0-10-4.4-10-10v-9c0-5.6,4.4-10,10-10h24c5.6,0,10,4.4,10,10v9
		C123.8,129,119.4,133.4,113.8,133.4z"/>
</g>
<path class="st6" d="M0,0"/>
<text transform="matrix(1 0 0 1 86.3331 123.8005)" class="st7 st8 st9">TMP</text>
</svg>
